<svg xmlns="http://www.w3.org/2000/svg" width="1024" height="1024" viewBox="0 0 1024 1024"><defs>
  <linearGradient id="bg" x1="0" y1="0" x2="1" y2="1">
    <stop offset="0" stop-color="#3a0ca3"/><stop offset="0.5" stop-color="#f72585"/>
    <stop offset="1" stop-color="#4cc9f0"/>
  </linearGradient>
  <radialGradient id="glow" cx="0.5" cy="0.46" r="0.55">
    <stop offset="0" stop-color="#ffffff" stop-opacity="0.55"/>
    <stop offset="0.55" stop-color="#ff7ad9" stop-opacity="0.18"/>
    <stop offset="1" stop-color="#ffffff" stop-opacity="0"/>
  </radialGradient>
  <radialGradient id="brain" cx="0.42" cy="0.34" r="0.85">
    <stop offset="0" stop-color="#ffd1ec"/><stop offset="0.45" stop-color="#ff8fd0"/>
    <stop offset="1" stop-color="#ff3ea5"/>
  </radialGradient>
</defs><rect width="1024" height="1024" fill="url(#bg)"/><polygon points="512,512 1960,512 1948,700" fill="#ffffff" opacity="0.05"/><polygon points="512,512 1769,1231 1665,1388" fill="#ffffff" opacity="0.05"/><polygon points="512,512 1245,1761 1077,1845" fill="#ffffff" opacity="0.05"/><polygon points="512,512 528,1960 340,1950" fill="#ffffff" opacity="0.05"/><polygon points="512,512 -194,1776 -352,1674" fill="#ffffff" opacity="0.05"/><polygon points="512,512 -729,1258 -815,1091" fill="#ffffff" opacity="0.05"/><polygon points="512,512 -936,543 -927,355" fill="#ffffff" opacity="0.05"/><polygon points="512,512 -760,-180 -659,-339" fill="#ffffff" opacity="0.05"/><polygon points="512,512 -248,-721 -82,-809" fill="#ffffff" opacity="0.05"/><polygon points="512,512 465,-935 653,-929" fill="#ffffff" opacity="0.05"/><polygon points="512,512 1190,-767 1351,-669" fill="#ffffff" opacity="0.05"/><polygon points="512,512 1736,-261 1826,-96" fill="#ffffff" opacity="0.05"/><rect width="1024" height="1024" fill="url(#glow)"/></svg>