<svg xmlns="http://www.w3.org/2000/svg" width="1024" height="1024" viewBox="0 0 1024 1024"><defs>
  <linearGradient id="bg" x1="0" y1="0" x2="1" y2="1">
    <stop offset="0" stop-color="#3a0ca3"/><stop offset="0.5" stop-color="#f72585"/>
    <stop offset="1" stop-color="#4cc9f0"/>
  </linearGradient>
  <radialGradient id="glow" cx="0.5" cy="0.46" r="0.55">
    <stop offset="0" stop-color="#ffffff" stop-opacity="0.55"/>
    <stop offset="0.55" stop-color="#ff7ad9" stop-opacity="0.18"/>
    <stop offset="1" stop-color="#ffffff" stop-opacity="0"/>
  </radialGradient>
  <radialGradient id="brain" cx="0.42" cy="0.34" r="0.85">
    <stop offset="0" stop-color="#ffd1ec"/><stop offset="0.45" stop-color="#ff8fd0"/>
    <stop offset="1" stop-color="#ff3ea5"/>
  </radialGradient>
</defs><rect width="1024" height="1024" fill="url(#bg)"/><polygon points="512,512 1960,512 1948,700" fill="#ffffff" opacity="0.05"/><polygon points="512,512 1769,1231 1665,1388" fill="#ffffff" opacity="0.05"/><polygon points="512,512 1245,1761 1077,1845" fill="#ffffff" opacity="0.05"/><polygon points="512,512 528,1960 340,1950" fill="#ffffff" opacity="0.05"/><polygon points="512,512 -194,1776 -352,1674" fill="#ffffff" opacity="0.05"/><polygon points="512,512 -729,1258 -815,1091" fill="#ffffff" opacity="0.05"/><polygon points="512,512 -936,543 -927,355" fill="#ffffff" opacity="0.05"/><polygon points="512,512 -760,-180 -659,-339" fill="#ffffff" opacity="0.05"/><polygon points="512,512 -248,-721 -82,-809" fill="#ffffff" opacity="0.05"/><polygon points="512,512 465,-935 653,-929" fill="#ffffff" opacity="0.05"/><polygon points="512,512 1190,-767 1351,-669" fill="#ffffff" opacity="0.05"/><polygon points="512,512 1736,-261 1826,-96" fill="#ffffff" opacity="0.05"/><rect width="1024" height="1024" fill="url(#glow)"/><g transform="translate(210,250) rotate(10)"><path d="M0,-46 L13,-13 L46,0 L13,13 L0,46 L-13,13 L-46,0 L-13,-13 Z" fill="#fff" opacity="0.85"/></g><g transform="translate(815,300) rotate(20)"><path d="M0,-32 L9,-9 L32,0 L9,9 L0,32 L-9,9 L-32,0 L-9,-9 Z" fill="#fff" opacity="0.7"/></g><g transform="translate(800,760) rotate(0)"><path d="M0,-40 L11,-11 L40,0 L11,11 L0,40 L-11,11 L-40,0 L-11,-11 Z" fill="#fff" opacity="0.6"/></g><g transform="translate(230,790) rotate(15)"><path d="M0,-28 L8,-8 L28,0 L8,8 L0,28 L-8,8 L-28,0 L-8,-8 Z" fill="#fff" opacity="0.6"/></g><g transform="translate(512,170) rotate(0)"><path d="M0,-24 L7,-7 L24,0 L7,7 L0,24 L-7,7 L-24,0 L-7,-7 Z" fill="#fff" opacity="0.5"/></g><circle cx="512.0" cy="461.4" r="230.0" fill="url(#brain)"/><circle cx="372.2" cy="415.4" r="119.6" fill="url(#brain)"/><circle cx="473.4" cy="360.2" r="124.2" fill="url(#brain)"/><circle cx="593.0" cy="355.6" r="128.8" fill="url(#brain)"/><circle cx="675.8" cy="424.6" r="115.0" fill="url(#brain)"/><circle cx="390.6" cy="544.2" r="110.4" fill="url(#brain)"/><circle cx="629.8" cy="544.2" r="110.4" fill="url(#brain)"/><circle cx="512.0" cy="581.0" r="128.8" fill="url(#brain)"/><path d="M 455.0 617.8 q 28 110 0 166 q 29 28 57 0 q -28 -83 0 -166 z" fill="url(#brain)"/><path d="M 512.0,305.0 C 537.8,378.6 486.2,443.0 512.0,507.4 S 501.0,617.8 512.0,663.8" fill="none" stroke="#b01060" stroke-width="14.7" stroke-linecap="round" opacity="0.5"/><path d="M 372.2,424.6 C 427.4,397.0 427.4,461.4 473.4,443.0" fill="none" stroke="#c01566" stroke-width="12.9" stroke-linecap="round" opacity="0.55"/><path d="M 556.2,433.8 C 611.4,406.2 620.6,470.6 666.6,447.6" fill="none" stroke="#c01566" stroke-width="12.9" stroke-linecap="round" opacity="0.55"/><path d="M 390.6,544.2 C 445.8,521.2 455.0,581.0 501.0,558.0" fill="none" stroke="#c01566" stroke-width="12.9" stroke-linecap="round" opacity="0.55"/><path d="M 556.2,558.0 C 611.4,535.0 629.8,590.2 675.8,567.2" fill="none" stroke="#c01566" stroke-width="12.9" stroke-linecap="round" opacity="0.55"/><ellipse cx="427.4" cy="378.6" rx="110.4" ry="64.4" fill="#ffffff" opacity="0.22" transform="rotate(-25 427.4 378.6)"/><circle cx="445.8" cy="461.4" r="66.2" fill="#fff" stroke="#1a0030" stroke-width="5.5"/><circle cx="462.3" cy="476.1" r="31.3" fill="#140026"/><circle cx="451.3" cy="465.0" r="10.1" fill="#fff"/><circle cx="593.0" cy="461.4" r="66.2" fill="#fff" stroke="#1a0030" stroke-width="5.5"/><circle cx="609.5" cy="476.1" r="31.3" fill="#140026"/><circle cx="598.5" cy="465.0" r="10.1" fill="#fff"/></svg>