<svg xmlns="http://www.w3.org/2000/svg" width="1024" height="1024" viewBox="0 0 1024 1024"><defs>
  <linearGradient id="bg" x1="0" y1="0" x2="1" y2="1">
    <stop offset="0" stop-color="#3a0ca3"/><stop offset="0.5" stop-color="#f72585"/>
    <stop offset="1" stop-color="#4cc9f0"/>
  </linearGradient>
  <radialGradient id="glow" cx="0.5" cy="0.46" r="0.55">
    <stop offset="0" stop-color="#ffffff" stop-opacity="0.55"/>
    <stop offset="0.55" stop-color="#ff7ad9" stop-opacity="0.18"/>
    <stop offset="1" stop-color="#ffffff" stop-opacity="0"/>
  </radialGradient>
  <radialGradient id="brain" cx="0.42" cy="0.34" r="0.85">
    <stop offset="0" stop-color="#ffd1ec"/><stop offset="0.45" stop-color="#ff8fd0"/>
    <stop offset="1" stop-color="#ff3ea5"/>
  </radialGradient>
</defs><rect width="1024" height="1024" fill="url(#glow)"/><g transform="translate(210,250) rotate(10)"><path d="M0,-46 L13,-13 L46,0 L13,13 L0,46 L-13,13 L-46,0 L-13,-13 Z" fill="#fff" opacity="0.85"/></g><g transform="translate(815,300) rotate(20)"><path d="M0,-32 L9,-9 L32,0 L9,9 L0,32 L-9,9 L-32,0 L-9,-9 Z" fill="#fff" opacity="0.7"/></g><g transform="translate(800,760) rotate(0)"><path d="M0,-40 L11,-11 L40,0 L11,11 L0,40 L-11,11 L-40,0 L-11,-11 Z" fill="#fff" opacity="0.6"/></g><g transform="translate(230,790) rotate(15)"><path d="M0,-28 L8,-8 L28,0 L8,8 L0,28 L-8,8 L-28,0 L-8,-8 Z" fill="#fff" opacity="0.6"/></g><g transform="translate(512,170) rotate(0)"><path d="M0,-24 L7,-7 L24,0 L7,7 L0,24 L-7,7 L-24,0 L-7,-7 Z" fill="#fff" opacity="0.5"/></g></svg>